<svg width="20" height="20" viewBox="0 0 20 20" fill="none" xmlns="http://www.w3.org/2000/svg">
<path d="M17.75 8.00032C17.75 7.8014 17.671 7.61064 17.5303 7.46999C17.3897 7.32933 17.1989 7.25032 17 7.25032C16.8011 7.25032 16.6103 7.32933 16.4697 7.46999C16.329 7.61064 16.25 7.8014 16.25 8.00032H17.75ZM3.75 8.00032C3.75 7.8014 3.67098 7.61064 3.53033 7.46999C3.38968 7.32933 3.19891 7.25032 3 7.25032C2.80109 7.25032 2.61032 7.32933 2.46967 7.46999C2.32902 7.61064 2.25 7.8014 2.25 8.00032H3.75ZM18.47 10.5303C18.5387 10.604 18.6215 10.6631 18.7135 10.7041C18.8055 10.7451 18.9048 10.7671 19.0055 10.7689C19.1062 10.7707 19.2062 10.7522 19.2996 10.7144C19.393 10.6767 19.4778 10.6206 19.549 10.5494C19.6203 10.4781 19.6764 10.3933 19.7141 10.2999C19.7518 10.2065 19.7704 10.1065 19.7686 10.0058C19.7668 9.90509 19.7448 9.80578 19.7038 9.71378C19.6628 9.62178 19.6037 9.53898 19.53 9.47032L18.47 10.5303ZM10 1.00032L10.53 0.470317C10.3894 0.329866 10.1988 0.250977 10 0.250977C9.80125 0.250977 9.61063 0.329866 9.47 0.470317L10 1.00032ZM0.470001 9.47032C0.396314 9.53898 0.337212 9.62178 0.29622 9.71378C0.255228 9.80578 0.233186 9.90509 0.231409 10.0058C0.229633 10.1065 0.248157 10.2065 0.285878 10.2999C0.323599 10.3933 0.379744 10.4781 0.450963 10.5494C0.522181 10.6206 0.607015 10.6767 0.700404 10.7144C0.793792 10.7522 0.893821 10.7707 0.994524 10.7689C1.09523 10.7671 1.19454 10.7451 1.28654 10.7041C1.37854 10.6631 1.46134 10.604 1.53 10.5303L0.470001 9.47032ZM5 19.7503H15V18.2503H5V19.7503ZM17.75 17.0003V8.00032H16.25V17.0003H17.75ZM3.75 17.0003V8.00032H2.25V17.0003H3.75ZM19.53 9.47032L10.53 0.470317L9.47 1.53032L18.47 10.5303L19.53 9.47032ZM9.47 0.470317L0.470001 9.47032L1.53 10.5303L10.53 1.53032L9.47 0.470317ZM15 19.7503C15.7293 19.7503 16.4288 19.4606 16.9445 18.9449C17.4603 18.4291 17.75 17.7297 17.75 17.0003H16.25C16.25 17.6903 15.69 18.2503 15 18.2503V19.7503ZM5 18.2503C4.31 18.2503 3.75 17.6903 3.75 17.0003H2.25C2.25 17.7297 2.53973 18.4291 3.05546 18.9449C3.57118 19.4606 4.27066 19.7503 5 19.7503V18.2503Z" fill="white"/>
</svg>
